G04*
G04 #@! TF.GenerationSoftware,Altium Limited,Altium Designer,25.2.1 (25)*
G04*
G04 Layer_Color=32768*
%FSLAX44Y44*%
%MOMM*%
G71*
G04*
G04 #@! TF.SameCoordinates,F4E26A61-E02E-48EF-B3E5-39454B4B8AAE*
G04*
G04*
G04 #@! TF.FilePolarity,Positive*
G04*
G01*
G75*
%ADD12C,0.2000*%
%ADD33C,0.1000*%
%ADD34C,0.0500*%
D12*
X652500Y902250D02*
Y917750D01*
Y902250D02*
X687500D01*
Y917750D01*
X652500D02*
X687500D01*
X652500Y782250D02*
Y797750D01*
Y782250D02*
X687500D01*
Y797750D01*
X652500D02*
X687500D01*
X722500Y672250D02*
Y687750D01*
Y672250D02*
X757500D01*
Y687750D01*
X722500D02*
X757500D01*
X959500Y746750D02*
X980500D01*
X959500Y714750D02*
Y746750D01*
Y714750D02*
X980500D01*
Y746750D01*
X1157500Y772250D02*
Y787750D01*
X1122500D02*
X1157500D01*
X1122500Y772250D02*
Y787750D01*
Y772250D02*
X1157500D01*
Y902250D02*
Y917750D01*
X1122500D02*
X1157500D01*
X1122500Y902250D02*
Y917750D01*
Y902250D02*
X1157500D01*
X914200Y865500D02*
Y964500D01*
Y865500D02*
X985800D01*
Y964500D01*
X914200D02*
X985800D01*
X1106250Y1002250D02*
Y1017750D01*
X1071250D02*
X1106250D01*
X1071250Y1002250D02*
Y1017750D01*
Y1002250D02*
X1106250D01*
X917000Y1052250D02*
Y1067750D01*
X882000D02*
X917000D01*
X882000Y1052250D02*
Y1067750D01*
Y1052250D02*
X917000D01*
X722500Y1002250D02*
Y1017750D01*
Y1002250D02*
X757500D01*
Y1017750D01*
X722500D02*
X757500D01*
X945722Y768035D02*
Y827085D01*
X862758D02*
X945722D01*
X862758Y768035D02*
Y827085D01*
Y768035D02*
X945722D01*
X873250Y632250D02*
Y647750D01*
Y632250D02*
X908250D01*
Y647750D01*
X873250D02*
X908250D01*
X851660Y832780D02*
Y853780D01*
X819660D02*
X851660D01*
X819660Y832780D02*
Y853780D01*
Y832780D02*
X851660D01*
X1062500Y672250D02*
Y687750D01*
Y672250D02*
X1097500D01*
Y687750D01*
X1062500D02*
X1097500D01*
D33*
X1044020Y797560D02*
X1054020D01*
X1049020Y792560D02*
Y802560D01*
X797560Y788750D02*
Y798750D01*
X792560Y793750D02*
X802560D01*
X775000Y860000D02*
X785000D01*
X780000Y855000D02*
Y865000D01*
D34*
X1082520Y746560D02*
Y848560D01*
X1015520Y746560D02*
Y848560D01*
Y746560D02*
X1082520D01*
X1015520Y848560D02*
X1082520D01*
X827560Y767348D02*
Y820148D01*
X767560Y767348D02*
Y820148D01*
X827560D01*
X767560Y767348D02*
X827560D01*
X792500Y839000D02*
Y881000D01*
X767500Y839000D02*
Y881000D01*
X792500D01*
X767500Y839000D02*
X792500D01*
M02*
