G04*
G04 #@! TF.GenerationSoftware,Altium Limited,Altium Designer,25.2.1 (25)*
G04*
G04 Layer_Color=8421504*
%FSLAX44Y44*%
%MOMM*%
G71*
G04*
G04 #@! TF.SameCoordinates,F4E26A61-E02E-48EF-B3E5-39454B4B8AAE*
G04*
G04*
G04 #@! TF.FilePolarity,Positive*
G04*
G01*
G75*
G04:AMPARAMS|DCode=13|XSize=0.55mm|YSize=1.25mm|CornerRadius=0.0495mm|HoleSize=0mm|Usage=FLASHONLY|Rotation=270.000|XOffset=0mm|YOffset=0mm|HoleType=Round|Shape=RoundedRectangle|*
%AMROUNDEDRECTD13*
21,1,0.5500,1.1510,0,0,270.0*
21,1,0.4510,1.2500,0,0,270.0*
1,1,0.0990,-0.5755,-0.2255*
1,1,0.0990,-0.5755,0.2255*
1,1,0.0990,0.5755,0.2255*
1,1,0.0990,0.5755,-0.2255*
%
%ADD13ROUNDEDRECTD13*%
%ADD14R,1.2000X1.2000*%
%ADD15R,1.4000X0.9500*%
%ADD16R,1.1900X3.3000*%
G04:AMPARAMS|DCode=17|XSize=2.4692mm|YSize=0.6221mm|CornerRadius=0.3111mm|HoleSize=0mm|Usage=FLASHONLY|Rotation=180.000|XOffset=0mm|YOffset=0mm|HoleType=Round|Shape=RoundedRectangle|*
%AMROUNDEDRECTD17*
21,1,2.4692,0.0000,0,0,180.0*
21,1,1.8470,0.6221,0,0,180.0*
1,1,0.6221,-0.9235,0.0000*
1,1,0.6221,0.9235,0.0000*
1,1,0.6221,0.9235,0.0000*
1,1,0.6221,-0.9235,0.0000*
%
%ADD17ROUNDEDRECTD17*%
%ADD18R,2.4692X0.6221*%
%ADD19R,0.9500X1.4000*%
%ADD20R,1.4500X1.2000*%
D13*
X1075270Y753110D02*
D03*
Y765810D02*
D03*
Y778510D02*
D03*
Y791210D02*
D03*
Y803910D02*
D03*
Y816610D02*
D03*
Y829310D02*
D03*
Y842010D02*
D03*
X1022770Y753110D02*
D03*
Y765810D02*
D03*
Y778510D02*
D03*
Y791210D02*
D03*
Y803910D02*
D03*
Y816610D02*
D03*
Y829310D02*
D03*
Y842010D02*
D03*
D14*
X680500Y910000D02*
D03*
X659500D02*
D03*
X680500Y790000D02*
D03*
X659500D02*
D03*
X750500Y680000D02*
D03*
X729500D02*
D03*
X1129500Y780000D02*
D03*
X1150500D02*
D03*
X1129500Y910000D02*
D03*
X1150500D02*
D03*
X1078250Y1010000D02*
D03*
X1099250D02*
D03*
X889000Y1060000D02*
D03*
X910000D02*
D03*
X750500Y1010000D02*
D03*
X729500D02*
D03*
X901250Y640000D02*
D03*
X880250D02*
D03*
X1090500Y680000D02*
D03*
X1069500D02*
D03*
D15*
X970000Y721500D02*
D03*
Y740000D02*
D03*
D16*
X975400Y883000D02*
D03*
X924600D02*
D03*
X950000Y947000D02*
D03*
D17*
X880104Y778510D02*
D03*
Y791210D02*
D03*
Y803910D02*
D03*
Y816610D02*
D03*
X928376D02*
D03*
Y803910D02*
D03*
Y791210D02*
D03*
D18*
Y778510D02*
D03*
D19*
X826410Y843280D02*
D03*
X844910D02*
D03*
D20*
X780000Y870000D02*
D03*
Y850000D02*
D03*
M02*
