G04*
G04 #@! TF.GenerationSoftware,Altium Limited,Altium Designer,25.2.1 (25)*
G04*
G04 Layer_Physical_Order=1*
G04 Layer_Color=255*
%FSLAX44Y44*%
%MOMM*%
G71*
G04*
G04 #@! TF.SameCoordinates,F4E26A61-E02E-48EF-B3E5-39454B4B8AAE*
G04*
G04*
G04 #@! TF.FilePolarity,Positive*
G04*
G01*
G75*
G04:AMPARAMS|DCode=13|XSize=0.55mm|YSize=1.25mm|CornerRadius=0.0495mm|HoleSize=0mm|Usage=FLASHONLY|Rotation=270.000|XOffset=0mm|YOffset=0mm|HoleType=Round|Shape=RoundedRectangle|*
%AMROUNDEDRECTD13*
21,1,0.5500,1.1510,0,0,270.0*
21,1,0.4510,1.2500,0,0,270.0*
1,1,0.0990,-0.5755,-0.2255*
1,1,0.0990,-0.5755,0.2255*
1,1,0.0990,0.5755,0.2255*
1,1,0.0990,0.5755,-0.2255*
%
%ADD13ROUNDEDRECTD13*%
%ADD14R,1.2000X1.2000*%
%ADD15R,1.4000X0.9500*%
%ADD16R,1.1900X3.3000*%
G04:AMPARAMS|DCode=17|XSize=2.4692mm|YSize=0.6221mm|CornerRadius=0.3111mm|HoleSize=0mm|Usage=FLASHONLY|Rotation=180.000|XOffset=0mm|YOffset=0mm|HoleType=Round|Shape=RoundedRectangle|*
%AMROUNDEDRECTD17*
21,1,2.4692,0.0000,0,0,180.0*
21,1,1.8470,0.6221,0,0,180.0*
1,1,0.6221,-0.9235,0.0000*
1,1,0.6221,0.9235,0.0000*
1,1,0.6221,0.9235,0.0000*
1,1,0.6221,-0.9235,0.0000*
%
%ADD17ROUNDEDRECTD17*%
%ADD18R,2.4692X0.6221*%
%ADD19R,0.9500X1.4000*%
%ADD20R,1.4500X1.2000*%
%ADD27C,0.5000*%
%ADD28R,1.7000X1.7000*%
%ADD29C,1.7000*%
%ADD30C,3.5000*%
%ADD31C,1.2700*%
G36*
X890761Y1048244D02*
X891756Y1046756D01*
X906756Y1031756D01*
X908244Y1030761D01*
X910000Y1030412D01*
X1013100D01*
X1081432Y962079D01*
Y847693D01*
X1081025Y847359D01*
X1076540D01*
Y842010D01*
X1075270D01*
Y840740D01*
X1066421D01*
Y839755D01*
X1066656Y838571D01*
X1066822Y838322D01*
X1067311Y837070D01*
X1067165Y832539D01*
X1066971Y831565D01*
Y827055D01*
X1067165Y826081D01*
X1067271Y825922D01*
X1067716Y824273D01*
Y821647D01*
X1067271Y819998D01*
X1067165Y819838D01*
X1066971Y818865D01*
Y818300D01*
X1044756Y796084D01*
X1043761Y794596D01*
X1043412Y792840D01*
Y725245D01*
X1026429Y708262D01*
X1026099Y708350D01*
X1023901D01*
X1021777Y707781D01*
X1019873Y706682D01*
X1018318Y705127D01*
X1017219Y703223D01*
X1016650Y701099D01*
Y698901D01*
X1016694Y698738D01*
X1014158Y694462D01*
X1013200Y693738D01*
X1002876D01*
X1001120Y693389D01*
X999631Y692394D01*
X957237Y650000D01*
X765989D01*
X748608Y667381D01*
X750521Y672000D01*
X758500D01*
Y675412D01*
X765000D01*
X766756Y675761D01*
X768244Y676756D01*
X773300Y681811D01*
X773901Y681650D01*
X776099D01*
X778223Y682219D01*
X780127Y683318D01*
X781682Y684873D01*
X782781Y686777D01*
X783350Y688901D01*
Y691099D01*
X782781Y693223D01*
X781682Y695127D01*
X780127Y696682D01*
X778223Y697781D01*
X776099Y698350D01*
X773901D01*
X771777Y697781D01*
X769873Y696682D01*
X768318Y695127D01*
X767219Y693223D01*
X766650Y691099D01*
Y688901D01*
X766811Y688300D01*
X763500Y684989D01*
X758500Y685555D01*
Y688000D01*
X742500D01*
Y686035D01*
X737500Y683362D01*
X737500Y683362D01*
Y688000D01*
X727989D01*
X680000Y735989D01*
Y776940D01*
X685000Y779011D01*
X691917Y772095D01*
X691650Y771099D01*
Y768901D01*
X692219Y766777D01*
X693318Y764873D01*
X694873Y763318D01*
X696777Y762219D01*
X698901Y761650D01*
X701099D01*
X703223Y762219D01*
X705127Y763318D01*
X706682Y764873D01*
X707781Y766777D01*
X708350Y768901D01*
Y771099D01*
X707781Y773223D01*
X706682Y775127D01*
X705127Y776682D01*
X703223Y777781D01*
X701099Y778350D01*
X698901D01*
X698694Y778295D01*
X688500Y788489D01*
Y798000D01*
X680000D01*
Y876120D01*
X684873Y878318D01*
X686777Y877219D01*
X688901Y876650D01*
X691099D01*
X693223Y877219D01*
X695127Y878318D01*
X696682Y879873D01*
X697781Y881777D01*
X698350Y883901D01*
Y886099D01*
X697781Y888223D01*
X696682Y890127D01*
X695127Y891682D01*
X693223Y892781D01*
X691099Y893350D01*
X688901D01*
X688763Y893313D01*
X685088Y896987D01*
Y902000D01*
X688500D01*
Y918000D01*
X680000D01*
Y954011D01*
X720292Y994304D01*
X724912Y992390D01*
Y920500D01*
X725261Y918744D01*
X726256Y917256D01*
X770750Y872761D01*
Y863316D01*
X770210Y858540D01*
X770210Y857224D01*
Y851270D01*
X780000D01*
X789790D01*
Y857224D01*
X789790Y858540D01*
X789250Y863316D01*
Y878000D01*
X778489D01*
X734088Y922401D01*
Y1002000D01*
X737500D01*
Y1006638D01*
X737500Y1006638D01*
X742500Y1003965D01*
Y1002000D01*
X758500D01*
Y1005412D01*
X768100D01*
X771811Y1001700D01*
X771650Y1001099D01*
Y998901D01*
X772219Y996777D01*
X773318Y994873D01*
X774873Y993318D01*
X776777Y992219D01*
X778901Y991650D01*
X781099D01*
X783223Y992219D01*
X785127Y993318D01*
X786682Y994873D01*
X787781Y996777D01*
X788350Y998901D01*
Y1001099D01*
X787781Y1003223D01*
X786682Y1005127D01*
X785127Y1006682D01*
X783223Y1007781D01*
X781099Y1008350D01*
X778901D01*
X778300Y1008189D01*
X773244Y1013244D01*
X771756Y1014239D01*
X770000Y1014588D01*
X758500D01*
Y1018000D01*
X750521D01*
X748608Y1022619D01*
X775989Y1050000D01*
X890412D01*
X890761Y1048244D01*
D02*
G37*
%LPC*%
G36*
X932550Y901500D02*
X916650D01*
Y887588D01*
X907656D01*
X905900Y887239D01*
X904411Y886244D01*
X856660Y838493D01*
X851660Y840564D01*
Y852280D01*
X838476D01*
X833700Y852820D01*
X833384Y852820D01*
X827680D01*
Y843280D01*
Y833740D01*
X833384D01*
X833700Y833740D01*
X835281Y833919D01*
X838262Y831582D01*
X838533Y830691D01*
X838537Y825690D01*
X838146Y825299D01*
X837047Y823395D01*
X836478Y821271D01*
Y819073D01*
X837047Y816949D01*
X838146Y815045D01*
X839701Y813490D01*
X841605Y812391D01*
X843729Y811822D01*
X845927D01*
X848051Y812391D01*
X849955Y813490D01*
X851510Y815045D01*
X852609Y816949D01*
X853178Y819073D01*
Y821271D01*
X853017Y821872D01*
X909556Y878412D01*
X916650D01*
Y864500D01*
X932550D01*
Y901500D01*
D02*
G37*
G36*
X825140Y852820D02*
X819120D01*
Y844550D01*
X825140D01*
Y852820D01*
D02*
G37*
G36*
X1074000Y847359D02*
X1069515D01*
X1068331Y847124D01*
X1067327Y846453D01*
X1066656Y845449D01*
X1066421Y844265D01*
Y843280D01*
X1074000D01*
Y847359D01*
D02*
G37*
G36*
X789790Y848730D02*
X781270D01*
Y841460D01*
X789790D01*
Y848730D01*
D02*
G37*
G36*
X778730D02*
X770210D01*
Y841460D01*
X778730D01*
Y848730D01*
D02*
G37*
G36*
X936270Y848863D02*
Y841270D01*
X943863D01*
X943284Y843431D01*
X942114Y845459D01*
X940459Y847114D01*
X938431Y848284D01*
X936270Y848863D01*
D02*
G37*
G36*
X933730D02*
X931569Y848284D01*
X929541Y847114D01*
X927886Y845459D01*
X926716Y843431D01*
X926137Y841270D01*
X933730D01*
Y848863D01*
D02*
G37*
G36*
X957950Y965500D02*
X942050D01*
Y928500D01*
X945412D01*
Y903950D01*
X945761Y902194D01*
X946756Y900706D01*
X967450Y880011D01*
Y864993D01*
X967362Y864550D01*
Y852849D01*
X949666Y835154D01*
X947869Y835262D01*
X944001Y838730D01*
X926137D01*
X926590Y837039D01*
X926441Y836174D01*
X923559Y832039D01*
X921240D01*
X921176Y832026D01*
X921111Y832035D01*
X920787Y831949D01*
X920459Y831884D01*
X920405Y831848D01*
X920342Y831831D01*
X920076Y831628D01*
X919798Y831442D01*
X919761Y831387D01*
X919709Y831348D01*
X915886Y827006D01*
X915883Y827001D01*
X915878Y826997D01*
X915682Y826655D01*
X915486Y826318D01*
X915486Y826312D01*
X915483Y826307D01*
X915433Y825917D01*
X915381Y825529D01*
X915382Y825523D01*
X915382Y825517D01*
X915526Y823436D01*
X915620Y823092D01*
X915699Y822743D01*
X915519Y820929D01*
X913752Y817716D01*
X913708Y817665D01*
X900996Y804954D01*
X900001Y803465D01*
X899652Y801709D01*
Y798849D01*
X898024Y797425D01*
X893024Y799693D01*
Y800129D01*
X893128Y800381D01*
X894153Y801916D01*
X894550Y803910D01*
X894153Y805904D01*
X893128Y807439D01*
X893024Y807691D01*
Y812829D01*
X893128Y813081D01*
X894153Y814616D01*
X894233Y815015D01*
X901771Y822553D01*
X902766Y824042D01*
X903115Y825798D01*
Y831340D01*
X903223Y831369D01*
X905127Y832468D01*
X906682Y834023D01*
X907781Y835927D01*
X908350Y838051D01*
Y840249D01*
X907781Y842373D01*
X906682Y844277D01*
X905127Y845832D01*
X903223Y846931D01*
X901099Y847500D01*
X898901D01*
X896777Y846931D01*
X894873Y845832D01*
X893318Y844277D01*
X892219Y842373D01*
X891650Y840249D01*
Y838051D01*
X892219Y835927D01*
X893318Y834023D01*
X893939Y833403D01*
Y827698D01*
X888061Y821821D01*
X870869D01*
X868875Y821424D01*
X867184Y820295D01*
X866055Y818604D01*
X865658Y816610D01*
X866055Y814616D01*
X867080Y813081D01*
X867184Y812829D01*
Y807691D01*
X867080Y807439D01*
X866055Y805904D01*
X865658Y803910D01*
X866055Y801916D01*
X866802Y800798D01*
X866146Y798290D01*
X864810Y795798D01*
X853350D01*
Y796099D01*
X852781Y798223D01*
X851682Y800127D01*
X850127Y801682D01*
X848223Y802781D01*
X846099Y803350D01*
X843901D01*
X841777Y802781D01*
X839873Y801682D01*
X838318Y800127D01*
X837219Y798223D01*
X836650Y796099D01*
Y793901D01*
X837219Y791777D01*
X837877Y790638D01*
X836974Y787866D01*
X835482Y785638D01*
X816108D01*
X815491Y787127D01*
X815177Y787886D01*
X815065Y788053D01*
X814988Y788238D01*
X814839Y788462D01*
X814838D01*
X814558Y788742D01*
X814558D01*
X814280Y789022D01*
X814280D01*
X814278Y789023D01*
X814276Y789025D01*
X814276D01*
X813908Y789177D01*
X813546Y789328D01*
X812620Y789515D01*
X812341Y789516D01*
X812065Y789550D01*
X811946Y789517D01*
X811824Y789517D01*
X811566Y789411D01*
X811298Y789337D01*
X811298Y789337D01*
X810749Y789060D01*
X810749Y789060D01*
X810748Y789059D01*
X810714Y789035D01*
X810685Y789026D01*
X810685D01*
X810685Y789026D01*
X809396Y788596D01*
X807200Y788862D01*
X805146Y793171D01*
X806727Y795410D01*
X808600D01*
Y805180D01*
X797560D01*
X786520D01*
Y796779D01*
X783768Y796231D01*
X783583Y796155D01*
X783386Y796115D01*
X779746Y794608D01*
X779579Y794496D01*
X779394Y794419D01*
X776118Y792231D01*
X775976Y792088D01*
X775809Y791977D01*
X775496Y791664D01*
X775121Y791714D01*
X774928Y791702D01*
X774736Y791729D01*
X772943Y791626D01*
X772755Y791577D01*
X772561Y791568D01*
X770819Y791130D01*
X770644Y791046D01*
X770456Y791000D01*
X768827Y790242D01*
X768671Y790127D01*
X768494Y790047D01*
X767298Y789183D01*
X767078Y788946D01*
X766841Y788727D01*
X764053Y784881D01*
X764015Y784800D01*
X763956Y784734D01*
X763850Y784441D01*
X763720Y784158D01*
X763717Y784070D01*
X763687Y783986D01*
X762983Y779277D01*
X762990Y779125D01*
X762961Y778976D01*
Y750000D01*
Y748523D01*
X763000Y748326D01*
Y748125D01*
X763576Y745227D01*
X763653Y745041D01*
X763692Y744844D01*
X764823Y742114D01*
X764935Y741947D01*
X765012Y741762D01*
X766653Y739305D01*
X766795Y739163D01*
X766907Y738996D01*
X768996Y736907D01*
X769163Y736795D01*
X769305Y736653D01*
X771762Y735012D01*
X771947Y734935D01*
X772114Y734823D01*
X774844Y733692D01*
X775041Y733653D01*
X775227Y733576D01*
X778125Y733000D01*
X778326D01*
X778523Y732961D01*
X815985D01*
X816182Y733000D01*
X816383D01*
X818315Y733384D01*
X818500Y733461D01*
X818697Y733500D01*
X820517Y734254D01*
X820684Y734366D01*
X820870Y734443D01*
X822507Y735537D01*
X822650Y735679D01*
X822816Y735791D01*
X824209Y737183D01*
X824321Y737350D01*
X824463Y737493D01*
X825557Y739130D01*
X825634Y739316D01*
X825746Y739483D01*
X826500Y741303D01*
X826539Y741500D01*
X826616Y741685D01*
X827000Y743617D01*
Y743818D01*
X827039Y744015D01*
Y745000D01*
X830320Y748522D01*
X956734D01*
X961000Y746750D01*
Y733566D01*
X960460Y728790D01*
X960460Y728474D01*
Y722770D01*
X970000D01*
X979540D01*
Y728474D01*
X979540Y728790D01*
X979260Y731262D01*
X982788Y736262D01*
X993630D01*
X994873Y735018D01*
X996777Y733919D01*
X998901Y733350D01*
X1001099D01*
X1003223Y733919D01*
X1004244Y734508D01*
X1005768Y735126D01*
X1008443Y735578D01*
X1011035Y734113D01*
X1011387Y733877D01*
X1013225Y733116D01*
X1014005Y732961D01*
X1030994D01*
X1031775Y733116D01*
X1033613Y733877D01*
X1034274Y734319D01*
X1035681Y735726D01*
X1036123Y736387D01*
X1036884Y738225D01*
X1037039Y739005D01*
Y746083D01*
X1036991Y746326D01*
X1036979Y746573D01*
X1036914Y746713D01*
X1036884Y746863D01*
X1036746Y747069D01*
X1036641Y747294D01*
X1036527Y747397D01*
X1036442Y747525D01*
X1036236Y747663D01*
X1036053Y747829D01*
X1033900Y749127D01*
X1033646Y749218D01*
X1033406Y749342D01*
X1030909Y750052D01*
X1031069Y750855D01*
Y755365D01*
X1030898Y756223D01*
X1030875Y756339D01*
X1030875Y756339D01*
X1030766Y759732D01*
X1031145Y761937D01*
X1031218Y762122D01*
X1031384Y762371D01*
X1031619Y763555D01*
Y764540D01*
X1022770D01*
X1013921D01*
Y763555D01*
X1014091Y762698D01*
X1014079Y762203D01*
X1012338Y758426D01*
X1011723Y757698D01*
X856823D01*
X855271Y759395D01*
X853587Y762698D01*
X853863Y763730D01*
X836137D01*
X836413Y762698D01*
X834729Y759395D01*
X833177Y757698D01*
X827401D01*
X824461Y760638D01*
X822657Y771462D01*
X826753Y776462D01*
X837073D01*
X838398Y774128D01*
X838889Y771462D01*
X837886Y770459D01*
X836716Y768431D01*
X836137Y766270D01*
X853863D01*
X853284Y768431D01*
X852114Y770459D01*
X851111Y771462D01*
X851602Y774128D01*
X852927Y776462D01*
X866091D01*
X867184Y774825D01*
X868875Y773696D01*
X870869Y773299D01*
X889339D01*
X891333Y773696D01*
X893024Y774825D01*
X894153Y776516D01*
X894233Y776915D01*
X898014Y780696D01*
X898233Y780705D01*
X898502Y780683D01*
X898627Y780723D01*
X898758Y780728D01*
X898846Y780769D01*
X900303Y781059D01*
X910929D01*
X911928Y781059D01*
X913402Y776715D01*
X913490Y776272D01*
Y772859D01*
X927106D01*
Y778510D01*
X928376D01*
Y779780D01*
X943262D01*
Y784161D01*
X947242Y786622D01*
X959806D01*
X961650Y784778D01*
Y783901D01*
X962219Y781777D01*
X963318Y779873D01*
X964873Y778318D01*
X966777Y777219D01*
X968901Y776650D01*
X971099D01*
X973223Y777219D01*
X975127Y778318D01*
X976682Y779873D01*
X976766Y780019D01*
X981582Y781249D01*
X982772Y781084D01*
X988590Y775266D01*
X990078Y774271D01*
X991834Y773922D01*
X1011723D01*
X1012338Y773194D01*
X1014079Y769417D01*
X1014091Y768922D01*
X1013921Y768065D01*
Y767080D01*
X1022770D01*
X1031619D01*
Y768065D01*
X1031384Y769249D01*
X1031218Y769498D01*
X1031145Y769683D01*
X1030766Y771888D01*
X1030875Y775281D01*
X1030875Y775282D01*
X1030898Y775397D01*
X1031069Y776255D01*
Y780765D01*
X1030898Y781623D01*
X1030875Y781739D01*
X1030875Y781739D01*
X1030766Y785132D01*
X1031145Y787337D01*
X1031218Y787522D01*
X1031384Y787771D01*
X1031619Y788955D01*
Y789940D01*
X1022770D01*
X1013921D01*
Y788955D01*
X1014091Y788098D01*
X1014079Y787603D01*
X1012338Y783826D01*
X1011795Y783184D01*
X1007011Y783531D01*
X1005729Y787129D01*
X1005670Y788098D01*
X1007114Y789541D01*
X1008284Y791569D01*
X1008863Y793730D01*
X990885D01*
X986482Y791782D01*
X985155Y791678D01*
X969678Y807154D01*
X968190Y808149D01*
X966434Y808498D01*
X943670D01*
X942334Y810990D01*
X941678Y813498D01*
X942425Y814616D01*
X942505Y815015D01*
X965907Y838417D01*
X967059Y838283D01*
X971650Y836099D01*
Y833901D01*
X972219Y831777D01*
X973318Y829873D01*
X974873Y828318D01*
X976777Y827219D01*
X978901Y826650D01*
X981099D01*
X983223Y827219D01*
X983320Y827275D01*
X984529Y826066D01*
X986018Y825071D01*
X987774Y824722D01*
X990842D01*
X992619Y821424D01*
X993084Y819722D01*
X992219Y818223D01*
X991650Y816099D01*
Y813901D01*
X992219Y811777D01*
X993318Y809873D01*
X994873Y808318D01*
X995254Y808098D01*
X995683Y806527D01*
X995607Y803555D01*
X995284Y802542D01*
X994541Y802114D01*
X992886Y800459D01*
X991716Y798431D01*
X991137Y796270D01*
X1008863D01*
X1008284Y798431D01*
X1007114Y800459D01*
X1005459Y802114D01*
X1004716Y802542D01*
X1004393Y803555D01*
X1004317Y806527D01*
X1004746Y808098D01*
X1005127Y808318D01*
X1006682Y809873D01*
X1007527Y811337D01*
X1012404Y811520D01*
X1013111Y810626D01*
X1014553Y807389D01*
X1014592Y806772D01*
X1014471Y806165D01*
Y801655D01*
X1014642Y800797D01*
X1014665Y800682D01*
X1014665Y800681D01*
X1014774Y797288D01*
X1014395Y795083D01*
X1014322Y794898D01*
X1014156Y794649D01*
X1013921Y793465D01*
Y792480D01*
X1022770D01*
X1031619D01*
Y793465D01*
X1031384Y794649D01*
X1031218Y794898D01*
X1031145Y795083D01*
X1030766Y797288D01*
X1030875Y800681D01*
X1030875Y800682D01*
X1030898Y800797D01*
X1031069Y801655D01*
Y806165D01*
X1030875Y807139D01*
X1030769Y807298D01*
X1030324Y808947D01*
Y811573D01*
X1030769Y813222D01*
X1030875Y813382D01*
X1031069Y814355D01*
Y818865D01*
X1030875Y819838D01*
X1030769Y819998D01*
X1030324Y821647D01*
Y824273D01*
X1030769Y825922D01*
X1030875Y826081D01*
X1031069Y827055D01*
Y831565D01*
X1030875Y832539D01*
X1030769Y832698D01*
X1030324Y834347D01*
Y836973D01*
X1030769Y838622D01*
X1030875Y838782D01*
X1031069Y839755D01*
Y844265D01*
X1030875Y845238D01*
X1030324Y846064D01*
X1029499Y846615D01*
X1028525Y846809D01*
X1027358D01*
Y855146D01*
X1027009Y856902D01*
X1026014Y858391D01*
X1022725Y861680D01*
X1022781Y861777D01*
X1023350Y863901D01*
Y866099D01*
X1022781Y868223D01*
X1021682Y870127D01*
X1020127Y871682D01*
X1018223Y872781D01*
X1016099Y873350D01*
X1013901D01*
X1011777Y872781D01*
X1009873Y871682D01*
X1008318Y870127D01*
X1007219Y868223D01*
X1006650Y866099D01*
Y863901D01*
X1007219Y861777D01*
X1008318Y859873D01*
X1009873Y858318D01*
X1011777Y857219D01*
X1013901Y856650D01*
X1014778D01*
X1018182Y853246D01*
Y846809D01*
X1017015D01*
X1016041Y846615D01*
X1015216Y846064D01*
X1014665Y845238D01*
X1014471Y844265D01*
Y839755D01*
X1014642Y838898D01*
X1014663Y838777D01*
X1013563Y835597D01*
X1012372Y833898D01*
X989674D01*
X988350Y835222D01*
Y836099D01*
X987781Y838223D01*
X986682Y840127D01*
X985127Y841682D01*
X983223Y842781D01*
X981099Y843350D01*
X978901D01*
X977549Y842988D01*
X977266Y843244D01*
X975194Y847705D01*
X976189Y849193D01*
X976538Y850949D01*
Y862650D01*
X978389Y864500D01*
X983350D01*
Y901500D01*
X967450D01*
Y899521D01*
X962831Y897608D01*
X954588Y905851D01*
Y928500D01*
X957950D01*
Y965500D01*
D02*
G37*
G36*
X825140Y842010D02*
X819120D01*
Y833740D01*
X825140D01*
Y842010D01*
D02*
G37*
G36*
X808600Y817490D02*
X798830D01*
Y807720D01*
X808600D01*
Y817490D01*
D02*
G37*
G36*
X796290D02*
X786520D01*
Y807720D01*
X796290D01*
Y817490D01*
D02*
G37*
G36*
X943262Y777240D02*
X929646D01*
Y772859D01*
X943262D01*
Y777240D01*
D02*
G37*
G36*
X931270Y728863D02*
Y721270D01*
X938863D01*
X938284Y723431D01*
X937114Y725459D01*
X935459Y727114D01*
X933431Y728284D01*
X931270Y728863D01*
D02*
G37*
G36*
X928730D02*
X926569Y728284D01*
X924541Y727114D01*
X922886Y725459D01*
X921716Y723431D01*
X921137Y721270D01*
X928730D01*
Y728863D01*
D02*
G37*
G36*
X979540Y720230D02*
X971270D01*
Y714210D01*
X979540D01*
Y720230D01*
D02*
G37*
G36*
X968730D02*
X960460D01*
Y714210D01*
X968730D01*
Y720230D01*
D02*
G37*
G36*
X938863Y718730D02*
X931270D01*
Y711137D01*
X933431Y711716D01*
X935459Y712886D01*
X937114Y714541D01*
X938284Y716569D01*
X938863Y718730D01*
D02*
G37*
G36*
X928730D02*
X921137D01*
X921716Y716569D01*
X922886Y714541D01*
X924541Y712886D01*
X926569Y711716D01*
X928730Y711137D01*
Y718730D01*
D02*
G37*
%LPD*%
G36*
X945000Y824037D02*
X942274Y822391D01*
X939816Y821933D01*
X937611Y822371D01*
X929646D01*
Y816610D01*
X927106D01*
Y822371D01*
X919141D01*
X918216Y822959D01*
X917560Y823577D01*
X917416Y825658D01*
X921240Y830000D01*
X945000D01*
Y824037D01*
D02*
G37*
G36*
X790982Y790000D02*
X790781Y789884D01*
X788726Y787829D01*
X787272Y785311D01*
Y785311D01*
X786520Y782503D01*
Y782320D01*
X797560D01*
X808600D01*
Y782503D01*
X808418Y783181D01*
X811667Y787239D01*
X812217Y787516D01*
X813143Y787329D01*
X813293Y787105D01*
X814424Y784375D01*
X815000Y781477D01*
Y776667D01*
X820000Y775000D01*
X825000Y745000D01*
Y744015D01*
X824616Y742083D01*
X823862Y740263D01*
X822767Y738625D01*
X821375Y737233D01*
X819737Y736138D01*
X817917Y735384D01*
X815985Y735000D01*
X778523D01*
X775625Y735576D01*
X772895Y736707D01*
X770438Y738349D01*
X768349Y740438D01*
X766707Y742895D01*
X765576Y745625D01*
X765000Y748523D01*
Y750000D01*
Y778976D01*
X765704Y783684D01*
X768491Y787530D01*
X769688Y788393D01*
X771317Y789152D01*
X773059Y789590D01*
X774852Y789693D01*
X776226Y789510D01*
X777251Y790535D01*
X780527Y792724D01*
X784166Y794231D01*
X788030Y795000D01*
X789642D01*
X790982Y790000D01*
D02*
G37*
G36*
X913477Y793258D02*
X914144Y792287D01*
X913930Y791210D01*
X914297Y789365D01*
X914024Y787991D01*
X912109Y783369D01*
X911928Y783098D01*
X900102D01*
X898346Y782749D01*
X898274Y782709D01*
X897137Y782885D01*
X895990Y789134D01*
X896787Y790088D01*
X896960Y790096D01*
X900806Y790861D01*
X904428Y792362D01*
X907688Y794540D01*
X913477Y793258D01*
D02*
G37*
G36*
X1024040Y747761D02*
X1028525D01*
X1029709Y747996D01*
X1030000Y748190D01*
X1032848Y747380D01*
X1035000Y746083D01*
Y739005D01*
X1034239Y737168D01*
X1032832Y735761D01*
X1030994Y735000D01*
X1014005D01*
X1012168Y735761D01*
X1010761Y737168D01*
X1010000Y739005D01*
Y746891D01*
X1013963Y748349D01*
X1015000Y748551D01*
X1015831Y747996D01*
X1017015Y747761D01*
X1021500D01*
Y753110D01*
X1024040D01*
Y747761D01*
D02*
G37*
%LPC*%
G36*
X808600Y779780D02*
X798830D01*
Y770010D01*
X799013D01*
X801821Y770762D01*
X804339Y772216D01*
X806394Y774271D01*
X807848Y776789D01*
X808600Y779597D01*
Y779780D01*
D02*
G37*
G36*
X796290D02*
X786520D01*
Y779597D01*
X787272Y776789D01*
X788726Y774271D01*
X790781Y772216D01*
X793299Y770762D01*
X796107Y770010D01*
X796290D01*
Y779780D01*
D02*
G37*
%LPD*%
D13*
X1075270Y753110D02*
D03*
Y765810D02*
D03*
Y778510D02*
D03*
Y791210D02*
D03*
Y803910D02*
D03*
Y816610D02*
D03*
Y829310D02*
D03*
Y842010D02*
D03*
X1022770Y753110D02*
D03*
Y765810D02*
D03*
Y778510D02*
D03*
Y791210D02*
D03*
Y803910D02*
D03*
Y816610D02*
D03*
Y829310D02*
D03*
Y842010D02*
D03*
D14*
X680500Y910000D02*
D03*
X659500D02*
D03*
X680500Y790000D02*
D03*
X659500D02*
D03*
X750500Y680000D02*
D03*
X729500D02*
D03*
X1129500Y780000D02*
D03*
X1150500D02*
D03*
X1129500Y910000D02*
D03*
X1150500D02*
D03*
X1078250Y1010000D02*
D03*
X1099250D02*
D03*
X889000Y1060000D02*
D03*
X910000D02*
D03*
X750500Y1010000D02*
D03*
X729500D02*
D03*
X901250Y640000D02*
D03*
X880250D02*
D03*
X1090500Y680000D02*
D03*
X1069500D02*
D03*
D15*
X970000Y721500D02*
D03*
Y740000D02*
D03*
D16*
X975400Y883000D02*
D03*
X924600D02*
D03*
X950000Y947000D02*
D03*
D17*
X880104Y778510D02*
D03*
Y791210D02*
D03*
Y803910D02*
D03*
Y816610D02*
D03*
X928376D02*
D03*
Y803910D02*
D03*
Y791210D02*
D03*
D18*
Y778510D02*
D03*
D19*
X826410Y843280D02*
D03*
X844910D02*
D03*
D20*
X780000Y870000D02*
D03*
Y850000D02*
D03*
D27*
X729500Y920500D02*
Y1010000D01*
Y920500D02*
X775250Y874750D01*
Y873500D02*
Y874750D01*
Y873500D02*
X778750Y870000D01*
X780000D01*
X844828Y820172D02*
X907656Y883000D01*
X898527Y837677D02*
X900000Y839150D01*
X898527Y825798D02*
Y837677D01*
X880104Y816610D02*
X889339D01*
X933527Y841473D02*
X935000Y840000D01*
X890000Y850000D02*
X920000D01*
X889339Y816610D02*
X898527Y825798D01*
X920000Y850000D02*
X928527Y841473D01*
X933527D01*
X907656Y883000D02*
X924600D01*
X1090500Y680000D02*
X1105000D01*
X1115000Y690000D01*
X1000000Y815000D02*
X1001360Y816360D01*
X1022520D01*
X1022770Y816610D01*
X1085500Y690500D02*
X1120000Y725000D01*
X987774Y829310D02*
X1022770D01*
X901250Y640000D02*
X953726D01*
X1002876Y689150D01*
X1060286D01*
X1061636Y690500D01*
X1085500D01*
X1015000Y862916D02*
Y865000D01*
Y862916D02*
X1022770Y855146D01*
Y842010D02*
Y855146D01*
X961706Y791210D02*
X967916Y785000D01*
X970000D01*
X928376Y791210D02*
X961706D01*
X1000000Y795000D02*
X1002084D01*
X1005874Y791210D01*
X1022770D01*
X970850Y740850D02*
X999150D01*
X1000000Y741700D01*
X750500Y680000D02*
X765000D01*
X775000Y690000D01*
X1025000Y700000D02*
Y700344D01*
X1048000Y723344D01*
Y792840D01*
X1071770Y816610D01*
X1075270D01*
X1026270Y791210D02*
X1028740Y788740D01*
Y793680D02*
X1049020Y813960D01*
Y819260D02*
X1071770Y842010D01*
X1028740Y788740D02*
Y793680D01*
X1049020Y813960D02*
Y819260D01*
X1026270Y791210D02*
X1028740Y793680D01*
X680500Y790000D02*
X700000Y770500D01*
Y770000D02*
Y770500D01*
X1055000Y715000D02*
Y787140D01*
X1071770Y803910D01*
X1075270D01*
X845000Y795000D02*
X847084D01*
X850874Y791210D01*
X970000Y740000D02*
X970850Y740850D01*
X680500Y895087D02*
Y910000D01*
Y895087D02*
X690000Y885587D01*
Y885000D02*
Y885587D01*
X1093527Y726473D02*
X1095000Y725000D01*
X1093527Y726473D02*
Y738353D01*
X1078770Y753110D02*
X1093527Y738353D01*
X1075270Y753110D02*
X1078770D01*
X770000Y1010000D02*
X780000Y1000000D01*
X750500Y1010000D02*
X770000D01*
X980000Y835000D02*
X982084D01*
X987774Y829310D01*
X937611Y816610D02*
X971950Y850949D01*
X895000Y1050000D02*
X910000Y1035000D01*
X895000Y1050000D02*
Y1054000D01*
X889000Y1060000D02*
X895000Y1054000D01*
X910000Y1035000D02*
X1015000D01*
X1086020Y963980D01*
Y836560D02*
Y963980D01*
X1078770Y829310D02*
X1086020Y836560D01*
X1075270Y829310D02*
X1078770D01*
X1078250Y1010000D02*
X1095000Y993250D01*
X1078770Y791210D02*
X1095000Y807440D01*
Y993250D01*
X1126000Y906500D02*
X1129500Y910000D01*
X1121500Y906500D02*
X1126000D01*
X1110000Y895000D02*
X1121500Y906500D01*
X1102438Y765560D02*
X1112998Y755000D01*
X1075520Y765560D02*
X1102438D01*
X1112998Y755000D02*
X1115000D01*
X1075270Y791210D02*
X1078770D01*
X1075270Y765810D02*
X1075520Y765560D01*
Y778760D02*
X1128260D01*
X1129500Y780000D01*
X1075270Y778510D02*
X1075520Y778760D01*
X991834Y778510D02*
X1022770D01*
X966434Y803910D02*
X991834Y778510D01*
X928376Y803910D02*
X966434D01*
X846450Y806450D02*
X890000Y850000D01*
X797560Y806450D02*
X846450D01*
X844869Y843239D02*
X844910Y843280D01*
X844828Y820172D02*
X844869Y820213D01*
Y843239D01*
X825500Y753110D02*
X1022770D01*
X850874Y791210D02*
X880104D01*
Y803910D01*
X1003625Y680000D02*
X1069500D01*
X953125Y629500D02*
X1003625Y680000D01*
X890750Y629500D02*
X953125D01*
X880250Y640000D02*
X890750Y629500D01*
X769500Y640000D02*
X880250D01*
X729500Y680000D02*
X769500Y640000D01*
X659500Y750000D02*
X729500Y680000D01*
X659500Y750000D02*
Y790000D01*
Y910000D01*
Y940000D01*
X729500Y1010000D01*
X790000Y1070500D01*
X899500D01*
X910000Y1060000D01*
X1049250D01*
X1099250Y1010000D01*
X1150500Y958750D01*
Y910000D02*
Y958750D01*
Y780000D02*
Y910000D01*
X930000Y720000D02*
X930750Y720750D01*
X969250D01*
X970000Y721500D01*
X845000Y765000D02*
X886592D01*
X900102Y778510D01*
X928376D01*
X797560Y781050D02*
X867998D01*
X870538Y778510D01*
X880104D01*
X780000Y850000D02*
X781250D01*
X797560Y833690D01*
Y806450D02*
Y833690D01*
X824160Y841030D02*
X826410Y843280D01*
X824160Y833050D02*
Y841030D01*
X797560Y806450D02*
X824160Y833050D01*
X975400Y868000D02*
Y878550D01*
X950000Y903950D02*
X975400Y878550D01*
X950000Y903950D02*
Y932000D01*
X971950Y864550D02*
X975400Y868000D01*
X971950Y850949D02*
Y864550D01*
X928376Y816610D02*
X937611D01*
X1028740Y788740D02*
X1033520Y783960D01*
Y773060D02*
Y783960D01*
X1026270Y765810D02*
X1033520Y773060D01*
X1022770Y765810D02*
X1026270D01*
X1071770Y842010D02*
X1075270D01*
X880104Y778510D02*
X889339D01*
X904240Y793411D01*
Y801709D01*
X919141Y816610D01*
X928376D01*
X797560Y781050D02*
X825500Y753110D01*
D28*
X797560Y806450D02*
D03*
D29*
Y781050D02*
D03*
D30*
X1150000Y630000D02*
D03*
X650000D02*
D03*
Y1070000D02*
D03*
X1150000D02*
D03*
D31*
X900000Y839150D02*
D03*
X1115000Y690000D02*
D03*
X1000000Y815000D02*
D03*
X1120000Y725000D02*
D03*
X1015000Y865000D02*
D03*
X970000Y785000D02*
D03*
X1000000Y795000D02*
D03*
Y741700D02*
D03*
X775000Y690000D02*
D03*
X1025000Y700000D02*
D03*
X700000Y770000D02*
D03*
X1055000Y715000D02*
D03*
X845000Y795000D02*
D03*
X690000Y885000D02*
D03*
X1095000Y725000D02*
D03*
X780000Y1000000D02*
D03*
X980000Y835000D02*
D03*
X1110000Y895000D02*
D03*
X1115000Y755000D02*
D03*
X844828Y820172D02*
D03*
X930000Y720000D02*
D03*
X935000Y840000D02*
D03*
X845000Y765000D02*
D03*
M02*
