G04*
G04 #@! TF.GenerationSoftware,Altium Limited,Altium Designer,25.2.1 (25)*
G04*
G04 Layer_Color=128*
%FSLAX44Y44*%
%MOMM*%
G71*
G04*
G04 #@! TF.SameCoordinates,F4E26A61-E02E-48EF-B3E5-39454B4B8AAE*
G04*
G04*
G04 #@! TF.FilePolarity,Positive*
G04*
G01*
G75*
%ADD36C,0.1270*%
D36*
X791610Y806450D02*
X803510D01*
X797560Y800500D02*
Y812400D01*
X791610Y781050D02*
X803510D01*
X797560Y775100D02*
Y787000D01*
X1135000Y630000D02*
X1165000D01*
X1150000Y615000D02*
Y645000D01*
X635000Y630000D02*
X665000D01*
X650000Y615000D02*
Y645000D01*
X635000Y1070000D02*
X665000D01*
X650000Y1055000D02*
Y1085000D01*
X1135000Y1070000D02*
X1165000D01*
X1150000Y1055000D02*
Y1085000D01*
X896444Y839150D02*
X903556D01*
X900000Y835594D02*
Y842706D01*
X1111444Y690000D02*
X1118556D01*
X1115000Y686444D02*
Y693556D01*
X996444Y815000D02*
X1003556D01*
X1000000Y811444D02*
Y818556D01*
X1116444Y725000D02*
X1123556D01*
X1120000Y721444D02*
Y728556D01*
X1011444Y865000D02*
X1018556D01*
X1015000Y861444D02*
Y868556D01*
X966444Y785000D02*
X973556D01*
X970000Y781444D02*
Y788556D01*
X996444Y795000D02*
X1003556D01*
X1000000Y791444D02*
Y798556D01*
X996444Y741700D02*
X1003556D01*
X1000000Y738144D02*
Y745256D01*
X771444Y690000D02*
X778556D01*
X775000Y686444D02*
Y693556D01*
X1021444Y700000D02*
X1028556D01*
X1025000Y696444D02*
Y703556D01*
X696444Y770000D02*
X703556D01*
X700000Y766444D02*
Y773556D01*
X1051444Y715000D02*
X1058556D01*
X1055000Y711444D02*
Y718556D01*
X841444Y795000D02*
X848556D01*
X845000Y791444D02*
Y798556D01*
X686444Y885000D02*
X693556D01*
X690000Y881444D02*
Y888556D01*
X1091444Y725000D02*
X1098556D01*
X1095000Y721444D02*
Y728556D01*
X776444Y1000000D02*
X783556D01*
X780000Y996444D02*
Y1003556D01*
X976444Y835000D02*
X983556D01*
X980000Y831444D02*
Y838556D01*
X1106444Y895000D02*
X1113556D01*
X1110000Y891444D02*
Y898556D01*
X1111444Y755000D02*
X1118556D01*
X1115000Y751444D02*
Y758556D01*
X841272Y820172D02*
X848384D01*
X844828Y816616D02*
Y823728D01*
X926444Y720000D02*
X933556D01*
X930000Y716444D02*
Y723556D01*
X931444Y840000D02*
X938556D01*
X935000Y836444D02*
Y843556D01*
X841444Y765000D02*
X848556D01*
X845000Y761444D02*
Y768556D01*
M02*
