G04*
G04 #@! TF.GenerationSoftware,Altium Limited,Altium Designer,25.2.1 (25)*
G04*
G04 Layer_Physical_Order=2*
G04 Layer_Color=16711680*
%FSLAX44Y44*%
%MOMM*%
G71*
G04*
G04 #@! TF.SameCoordinates,F4E26A61-E02E-48EF-B3E5-39454B4B8AAE*
G04*
G04*
G04 #@! TF.FilePolarity,Positive*
G04*
G01*
G75*
%ADD27C,0.5000*%
%ADD28R,1.7000X1.7000*%
%ADD29C,1.7000*%
%ADD30C,3.5000*%
%ADD31C,1.2700*%
G36*
X839139Y774372D02*
X837213Y769808D01*
X833161Y768671D01*
X831631Y768774D01*
X814764Y785641D01*
X814473Y785836D01*
X814192Y786044D01*
X814144Y786056D01*
X814102Y786083D01*
X813759Y786152D01*
X813419Y786236D01*
X813371Y786229D01*
X813322Y786239D01*
X812979Y786170D01*
X812633Y786119D01*
X812282Y785993D01*
X808944Y785391D01*
X805962Y787497D01*
X804007Y789452D01*
X805377Y794435D01*
X806188Y795410D01*
X808600D01*
Y798379D01*
X813219Y800292D01*
X839139Y774372D01*
D02*
G37*
G36*
X1122917Y1049616D02*
X1124737Y1048862D01*
X1126375Y1047767D01*
X1127767Y1046375D01*
X1128862Y1044737D01*
X1129616Y1042917D01*
X1130000Y1040985D01*
Y1040000D01*
Y733880D01*
X1125127Y731682D01*
X1123223Y732781D01*
X1121099Y733350D01*
X1118901D01*
X1118492Y733240D01*
X1108251Y743481D01*
X1111097Y747190D01*
X1111097Y747190D01*
X1111097D01*
X1112631Y746895D01*
X1113901Y746650D01*
X1116099Y746650D01*
X1118223Y747219D01*
X1120127Y748318D01*
X1121682Y749873D01*
X1122781Y751777D01*
X1123350Y753901D01*
Y756099D01*
X1122781Y758223D01*
X1121682Y760127D01*
X1120127Y761682D01*
X1119588Y761993D01*
Y887916D01*
X1119239Y889672D01*
X1118244Y891161D01*
X1117725Y891680D01*
X1117781Y891777D01*
X1118350Y893901D01*
Y896099D01*
X1117781Y898223D01*
X1116682Y900127D01*
X1115127Y901682D01*
X1113223Y902781D01*
X1111099Y903350D01*
X1108901D01*
X1106777Y902781D01*
X1104873Y901682D01*
X1103318Y900127D01*
X1102219Y898223D01*
X1101650Y896099D01*
Y893901D01*
X1102219Y891777D01*
X1103318Y889873D01*
X1104873Y888318D01*
X1106777Y887219D01*
X1108901Y886650D01*
X1109778D01*
X1110412Y886016D01*
Y761993D01*
X1109873Y761682D01*
X1108318Y760127D01*
X1107219Y758223D01*
X1106650Y756099D01*
Y753901D01*
X1107219Y751777D01*
X1107815Y750745D01*
X1107210Y750280D01*
X1107102Y750198D01*
X1103814Y747674D01*
X1072088Y779400D01*
Y812500D01*
X1071739Y814256D01*
X1070744Y815744D01*
X1023189Y863300D01*
X1023350Y863901D01*
Y866099D01*
X1022781Y868223D01*
X1021682Y870127D01*
X1020127Y871682D01*
X1018223Y872781D01*
X1016099Y873350D01*
X1013901D01*
X1011777Y872781D01*
X1009873Y871682D01*
X1008318Y870127D01*
X1007219Y868223D01*
X1006650Y866099D01*
Y863901D01*
X1007219Y861777D01*
X1008318Y859873D01*
X1009873Y858318D01*
X1011777Y857219D01*
X1013901Y856650D01*
X1016099D01*
X1016700Y856811D01*
X1062912Y810600D01*
Y777500D01*
X1063261Y775744D01*
X1064256Y774256D01*
X1091454Y747057D01*
X1089540Y742438D01*
X1079051D01*
X1008189Y813300D01*
X1008350Y813901D01*
Y816099D01*
X1007781Y818223D01*
X1006682Y820127D01*
X1005127Y821682D01*
X1003223Y822781D01*
X1001099Y823350D01*
X998901D01*
X996777Y822781D01*
X994873Y821682D01*
X993318Y820127D01*
X992219Y818223D01*
X991650Y816099D01*
Y813901D01*
X992219Y811777D01*
X993318Y809873D01*
X994873Y808318D01*
X995254Y808098D01*
X995683Y806527D01*
X995607Y803555D01*
X995284Y802542D01*
X994541Y802114D01*
X992886Y800459D01*
X991716Y798431D01*
X991137Y796270D01*
X1000000D01*
Y795000D01*
X1001270D01*
Y786137D01*
X1003431Y786716D01*
X1005459Y787886D01*
X1007114Y789541D01*
X1008284Y791569D01*
X1008620Y792821D01*
X1011567Y794253D01*
X1013890Y794621D01*
X1068454Y740058D01*
X1066540Y735438D01*
X1011800D01*
X1010842Y736162D01*
X1008306Y740438D01*
X1008350Y740601D01*
Y742799D01*
X1007781Y744923D01*
X1006682Y746827D01*
X1005127Y748382D01*
X1003223Y749481D01*
X1001099Y750050D01*
X998901D01*
X998300Y749889D01*
X991099Y757090D01*
Y783834D01*
X990993Y784363D01*
X993313Y786667D01*
X993979Y787084D01*
X995062Y787586D01*
X996569Y786716D01*
X998730Y786137D01*
Y793730D01*
X990885D01*
X986482Y791782D01*
X985155Y791678D01*
X962408Y814425D01*
X960920Y815419D01*
X959164Y815768D01*
X930720D01*
X908350Y838139D01*
Y840249D01*
X907781Y842373D01*
X906682Y844277D01*
X905127Y845832D01*
X903223Y846931D01*
X901099Y847500D01*
X898901D01*
X896777Y846931D01*
X894873Y845832D01*
X893318Y844277D01*
X892219Y842373D01*
X891650Y840249D01*
Y838051D01*
X892219Y835927D01*
X893318Y834023D01*
X894873Y832468D01*
X896777Y831369D01*
X898901Y830800D01*
X901099D01*
X902371Y831141D01*
X925575Y807936D01*
X927064Y806941D01*
X928820Y806592D01*
X954738D01*
X956234Y804588D01*
X953726Y799588D01*
X851993D01*
X851682Y800127D01*
X850127Y801682D01*
X849502Y802042D01*
Y813229D01*
X849955Y813490D01*
X851510Y815045D01*
X852609Y816949D01*
X853178Y819073D01*
Y821271D01*
X852609Y823395D01*
X851510Y825299D01*
X849955Y826854D01*
X848051Y827953D01*
X845927Y828522D01*
X843729D01*
X841605Y827953D01*
X839701Y826854D01*
X838146Y825299D01*
X837047Y823395D01*
X836478Y821271D01*
Y819073D01*
X837047Y816949D01*
X838146Y815045D01*
X839701Y813490D01*
X840326Y813130D01*
Y801943D01*
X839873Y801682D01*
X838318Y800127D01*
X837219Y798223D01*
X836821Y796738D01*
X834760Y795623D01*
X831650Y794839D01*
X815148Y811340D01*
Y816814D01*
X814799Y818570D01*
X813804Y820058D01*
X811168Y822694D01*
X809680Y823689D01*
X807924Y824038D01*
X757450D01*
X698189Y883300D01*
X698350Y883901D01*
Y886099D01*
X697781Y888223D01*
X696682Y890127D01*
X695127Y891682D01*
X693223Y892781D01*
X691099Y893350D01*
X688901D01*
X686777Y892781D01*
X684873Y891682D01*
X683318Y890127D01*
X682219Y888223D01*
X681650Y886099D01*
Y883901D01*
X682219Y881777D01*
X683318Y879873D01*
X684873Y878318D01*
X686777Y877219D01*
X688901Y876650D01*
X691099D01*
X691700Y876811D01*
X752306Y816206D01*
X753794Y815211D01*
X755550Y814862D01*
X786520D01*
Y807720D01*
X797560D01*
Y805180D01*
X786520D01*
Y797039D01*
X764005D01*
X763225Y796884D01*
X761387Y796123D01*
X760726Y795681D01*
X759319Y794274D01*
X758877Y793613D01*
X758116Y791775D01*
X757961Y790995D01*
Y790000D01*
Y745000D01*
Y743523D01*
X758000Y743326D01*
Y743125D01*
X758576Y740227D01*
X758653Y740041D01*
X758692Y739844D01*
X759823Y737114D01*
X759935Y736947D01*
X760012Y736762D01*
X761653Y734305D01*
X761795Y734163D01*
X761907Y733996D01*
X763996Y731907D01*
X764163Y731795D01*
X764305Y731653D01*
X766762Y730012D01*
X766947Y729935D01*
X767114Y729823D01*
X769844Y728692D01*
X770041Y728653D01*
X770227Y728576D01*
X773125Y728000D01*
X773326D01*
X773523Y727961D01*
X845985D01*
X846182Y728000D01*
X846383D01*
X848315Y728384D01*
X848500Y728461D01*
X848697Y728500D01*
X850517Y729254D01*
X850684Y729366D01*
X850870Y729443D01*
X852507Y730537D01*
X852650Y730679D01*
X852817Y730791D01*
X854209Y732183D01*
X854321Y732350D01*
X854463Y732492D01*
X855557Y734130D01*
X855634Y734316D01*
X855746Y734483D01*
X856500Y736303D01*
X856539Y736500D01*
X856616Y736685D01*
X857000Y738617D01*
Y738818D01*
X857039Y739015D01*
Y748511D01*
X857039Y748511D01*
X856884Y749292D01*
X856442Y749953D01*
X856442Y749953D01*
X850232Y756163D01*
X850459Y757886D01*
X852114Y759541D01*
X853284Y761569D01*
X853620Y762821D01*
X856567Y764253D01*
X858890Y764621D01*
X899756Y723756D01*
X901244Y722761D01*
X903000Y722412D01*
X918332D01*
X920376Y717502D01*
X918419Y714314D01*
X917577Y713738D01*
X762750D01*
X708189Y768300D01*
X708350Y768901D01*
Y771099D01*
X707781Y773223D01*
X706682Y775127D01*
X705127Y776682D01*
X703223Y777781D01*
X701099Y778350D01*
X698901D01*
X696777Y777781D01*
X694873Y776682D01*
X693318Y775127D01*
X692219Y773223D01*
X691650Y771099D01*
Y768901D01*
X692219Y766777D01*
X693318Y764873D01*
X694873Y763318D01*
X696777Y762219D01*
X698901Y761650D01*
X701099D01*
X701700Y761811D01*
X757606Y705906D01*
X759094Y704911D01*
X760850Y704562D01*
X771649D01*
X774579Y699562D01*
X774324Y699107D01*
X773237Y698172D01*
X771777Y697781D01*
X769873Y696682D01*
X768318Y695127D01*
X767219Y693223D01*
X766650Y691099D01*
Y688901D01*
X767219Y686777D01*
X768318Y684873D01*
X769873Y683318D01*
X771777Y682219D01*
X773901Y681650D01*
X776099D01*
X778223Y682219D01*
X780127Y683318D01*
X781682Y684873D01*
X782781Y686777D01*
X783350Y688901D01*
Y691099D01*
X783189Y691700D01*
X786900Y695412D01*
X1018007D01*
X1018318Y694873D01*
X1019873Y693318D01*
X1021777Y692219D01*
X1023901Y691650D01*
X1026099D01*
X1028223Y692219D01*
X1030127Y693318D01*
X1031682Y694873D01*
X1032781Y696777D01*
X1033350Y698901D01*
Y701099D01*
X1032781Y703223D01*
X1031682Y705127D01*
X1031397Y705412D01*
X1033193Y710412D01*
X1048007D01*
X1048318Y709873D01*
X1049873Y708318D01*
X1051777Y707219D01*
X1053901Y706650D01*
X1056099D01*
X1058223Y707219D01*
X1060127Y708318D01*
X1061682Y709873D01*
X1062781Y711777D01*
X1063350Y713901D01*
Y716099D01*
X1062781Y718223D01*
X1061682Y720127D01*
X1060547Y721262D01*
X1060764Y723094D01*
X1062194Y726262D01*
X1086321D01*
X1086650Y725932D01*
Y723901D01*
X1087219Y721777D01*
X1088318Y719873D01*
X1089873Y718318D01*
X1091777Y717219D01*
X1093901Y716650D01*
X1096099D01*
X1096922Y716870D01*
X1100490Y714990D01*
X1101922Y713581D01*
Y700573D01*
X1102271Y698817D01*
X1103266Y697329D01*
X1107275Y693320D01*
X1107219Y693223D01*
X1106650Y691099D01*
Y688901D01*
X1107219Y686777D01*
X1108318Y684873D01*
X1109873Y683318D01*
X1111777Y682219D01*
X1113901Y681650D01*
X1116099D01*
X1118223Y682219D01*
X1120127Y683318D01*
X1121682Y684873D01*
X1122781Y686777D01*
X1123350Y688901D01*
Y691099D01*
X1122781Y693223D01*
X1121682Y695127D01*
X1120127Y696682D01*
X1118223Y697781D01*
X1116099Y698350D01*
X1115222D01*
X1111099Y702474D01*
Y715022D01*
X1112403Y716161D01*
X1116099Y717611D01*
X1116777Y717219D01*
X1118901Y716650D01*
X1121099D01*
X1123223Y717219D01*
X1125127Y718318D01*
X1130000Y716120D01*
Y660000D01*
Y659015D01*
X1129616Y657083D01*
X1128862Y655263D01*
X1127767Y653625D01*
X1126375Y652233D01*
X1124737Y651138D01*
X1122917Y650384D01*
X1120985Y650000D01*
X679015D01*
X677083Y650384D01*
X675263Y651138D01*
X673625Y652233D01*
X672233Y653625D01*
X671138Y655263D01*
X670384Y657083D01*
X670000Y659015D01*
Y660000D01*
Y1050000D01*
X1120985D01*
X1122917Y1049616D01*
D02*
G37*
G36*
X790982Y790000D02*
X790781Y789884D01*
X788726Y787829D01*
X787272Y785311D01*
X786520Y782503D01*
Y782320D01*
X797560D01*
X809211D01*
X810194Y783076D01*
X813322Y784199D01*
X834292Y763229D01*
X835781Y762234D01*
X837171Y761958D01*
X837219Y761777D01*
X838318Y759873D01*
X839873Y758318D01*
X841777Y757219D01*
X843901Y756650D01*
X846099D01*
X846700Y756811D01*
X855000Y748511D01*
Y739015D01*
X854616Y737083D01*
X853862Y735263D01*
X852767Y733625D01*
X851375Y732233D01*
X849737Y731138D01*
X847917Y730384D01*
X845985Y730000D01*
X773523D01*
X770625Y730576D01*
X767895Y731707D01*
X765438Y733349D01*
X763349Y735438D01*
X761707Y737895D01*
X760576Y740625D01*
X760000Y743523D01*
Y745000D01*
Y790000D01*
Y790995D01*
X760761Y792832D01*
X762168Y794239D01*
X764005Y795000D01*
X789642D01*
X790982Y790000D01*
D02*
G37*
G36*
X1047080Y721358D02*
X1047072Y721262D01*
X1045096Y719588D01*
X992136D01*
X990380Y719239D01*
X988892Y718244D01*
X984386Y713738D01*
X942423D01*
X941581Y714314D01*
X938870Y718730D01*
X930000D01*
Y721270D01*
X938870D01*
X941581Y725686D01*
X942423Y726262D01*
X1044069D01*
X1047080Y721358D01*
D02*
G37*
%LPC*%
G36*
X936270Y848863D02*
Y841270D01*
X943863D01*
X943284Y843431D01*
X942114Y845459D01*
X940459Y847114D01*
X938431Y848284D01*
X936270Y848863D01*
D02*
G37*
G36*
X933730D02*
X931569Y848284D01*
X929541Y847114D01*
X927886Y845459D01*
X926716Y843431D01*
X926137Y841270D01*
X933730D01*
Y848863D01*
D02*
G37*
G36*
X943863Y838730D02*
X936270D01*
Y831137D01*
X938431Y831716D01*
X940459Y832886D01*
X942114Y834541D01*
X943284Y836569D01*
X943863Y838730D01*
D02*
G37*
G36*
X933730D02*
X926137D01*
X926716Y836569D01*
X927886Y834541D01*
X929541Y832886D01*
X931569Y831716D01*
X933730Y831137D01*
Y838730D01*
D02*
G37*
G36*
X781099Y1008350D02*
X778901D01*
X776777Y1007781D01*
X774873Y1006682D01*
X773318Y1005127D01*
X772219Y1003223D01*
X771650Y1001099D01*
Y998901D01*
X772219Y996777D01*
X773318Y994873D01*
X774873Y993318D01*
X776777Y992219D01*
X778901Y991650D01*
X781099D01*
X783223Y992219D01*
X785127Y993318D01*
X786682Y994873D01*
X786993Y995412D01*
X813100D01*
X971811Y836700D01*
X971650Y836099D01*
Y833901D01*
X972219Y831777D01*
X973318Y829873D01*
X974873Y828318D01*
X976777Y827219D01*
X978901Y826650D01*
X981099D01*
X983223Y827219D01*
X985127Y828318D01*
X986682Y829873D01*
X987781Y831777D01*
X988350Y833901D01*
Y836099D01*
X987781Y838223D01*
X986682Y840127D01*
X985127Y841682D01*
X983223Y842781D01*
X981099Y843350D01*
X978901D01*
X978300Y843189D01*
X818244Y1003244D01*
X816756Y1004239D01*
X815000Y1004588D01*
X786993D01*
X786682Y1005127D01*
X785127Y1006682D01*
X783223Y1007781D01*
X781099Y1008350D01*
D02*
G37*
G36*
X808600Y779780D02*
X798830D01*
Y770010D01*
X799013D01*
X801821Y770762D01*
X804339Y772216D01*
X806394Y774271D01*
X807848Y776789D01*
X808600Y779597D01*
Y779780D01*
D02*
G37*
G36*
X796290D02*
X786520D01*
Y779597D01*
X787272Y776789D01*
X788726Y774271D01*
X790781Y772216D01*
X793299Y770762D01*
X796107Y770010D01*
X796290D01*
Y779780D01*
D02*
G37*
%LPD*%
D27*
X900850Y839150D02*
X928820Y811180D01*
X900000Y839150D02*
X900850D01*
X1115000Y690000D02*
Y692084D01*
X1106510Y700573D02*
X1115000Y692084D01*
X1106510Y700573D02*
Y728834D01*
X1099494Y735850D02*
X1106510Y728834D01*
X1099250Y735850D02*
X1099494D01*
X1097251Y737850D02*
X1099250Y735850D01*
X1077150Y737850D02*
X1097251D01*
X1000000Y815000D02*
X1077150Y737850D01*
X1102394Y742850D02*
X1120000Y725244D01*
Y725000D02*
Y725244D01*
X1067500Y777500D02*
X1102150Y742850D01*
X1102394D01*
X1088221Y730850D02*
X1094071Y725000D01*
X925506Y730850D02*
X1088221D01*
X1094071Y725000D02*
X1095000D01*
X1067500Y777500D02*
Y812500D01*
X1015000Y865000D02*
X1067500Y812500D01*
X959164Y811180D02*
X986510Y783834D01*
X960000Y795000D02*
X970000Y785000D01*
X986510Y755190D02*
Y783834D01*
X955000Y840000D02*
X1000000Y795000D01*
X935000Y840000D02*
X955000D01*
X921656Y727000D02*
X925506Y730850D01*
X986510Y755190D02*
X1000000Y741700D01*
X854150Y775850D02*
X903000Y727000D01*
X921656D01*
X928820Y811180D02*
X959164D01*
X775000Y690000D02*
X785000Y700000D01*
X1025000D01*
X700000Y770000D02*
X760850Y709150D01*
X986286D01*
X992136Y715000D01*
X1055000D01*
X755550Y819450D02*
X807924D01*
X690000Y885000D02*
X755550Y819450D01*
X810560Y809440D02*
Y816814D01*
X844150Y775850D02*
X854150D01*
X810560Y809440D02*
X844150Y775850D01*
X844914Y795086D02*
X845000Y795000D01*
X844828Y820172D02*
X844914Y820086D01*
X845000Y795000D02*
X960000D01*
X844914Y795086D02*
Y820086D01*
X807924Y819450D02*
X810560Y816814D01*
X780000Y1000000D02*
X815000D01*
X980000Y835000D01*
X1110000Y892916D02*
X1115000Y887916D01*
X1110000Y892916D02*
Y895000D01*
X1115000Y755000D02*
Y887916D01*
X845000Y765000D02*
X890000Y720000D01*
X930000D01*
X797560Y806450D02*
X837537Y766473D01*
X843527D01*
X845000Y765000D01*
D28*
X797560Y806450D02*
D03*
D29*
Y781050D02*
D03*
D30*
X1150000Y630000D02*
D03*
X650000D02*
D03*
Y1070000D02*
D03*
X1150000D02*
D03*
D31*
X900000Y839150D02*
D03*
X1115000Y690000D02*
D03*
X1000000Y815000D02*
D03*
X1120000Y725000D02*
D03*
X1015000Y865000D02*
D03*
X970000Y785000D02*
D03*
X1000000Y795000D02*
D03*
Y741700D02*
D03*
X775000Y690000D02*
D03*
X1025000Y700000D02*
D03*
X700000Y770000D02*
D03*
X1055000Y715000D02*
D03*
X845000Y795000D02*
D03*
X690000Y885000D02*
D03*
X1095000Y725000D02*
D03*
X780000Y1000000D02*
D03*
X980000Y835000D02*
D03*
X1110000Y895000D02*
D03*
X1115000Y755000D02*
D03*
X844828Y820172D02*
D03*
X930000Y720000D02*
D03*
X935000Y840000D02*
D03*
X845000Y765000D02*
D03*
M02*
